<svg width="217" height="48" viewBox="0 0 217 48" fill="none" xmlns="http://www.w3.org/2000/svg">
<path d="M29.2491 0.000714562C21.8443 -0.0505386 14.7008 2.65703 9.28817 7.56645C9.0567 7.7724 8.9124 8.05465 8.88335 8.35828C8.85431 8.6619 8.94261 8.96515 9.13105 9.20901L12.4818 13.6555C12.5904 13.8036 12.7311 13.9267 12.894 14.0162C13.0568 14.1058 13.2379 14.1596 13.4245 14.1738C13.6111 14.188 13.7986 14.1624 13.9738 14.0986C14.1491 14.0349 14.3079 13.9346 14.4389 13.8049C16.3852 11.9145 18.6997 10.4201 21.2473 9.40874C23.7949 8.39743 26.5245 7.88958 29.2764 7.91487C40.7666 7.91487 46.7679 16.3168 46.7679 24.6126C46.7679 33.6317 40.4626 39.9763 31.4009 40.1024C24.3989 40.1024 19.1218 35.5929 19.1218 29.6365C19.1291 28.1317 19.48 26.6473 20.1492 25.2902C20.8184 23.9331 21.7892 22.7372 22.9917 21.7887C23.2459 21.5824 23.4066 21.2874 23.4391 20.9672C23.4717 20.647 23.3736 20.3271 23.1659 20.0765L19.6444 15.756C19.5379 15.6254 19.4055 15.5168 19.2551 15.4366C19.1047 15.3565 18.9393 15.3064 18.7686 15.2894C18.598 15.2724 18.4255 15.2888 18.2615 15.3376C18.0975 15.3864 17.9452 15.4666 17.8136 15.5735C15.6509 17.2663 13.9056 19.408 12.7058 21.8414C11.506 24.2748 10.8821 26.9383 10.8799 29.6365C10.8799 39.8901 19.8493 47.9336 31.3395 48L31.4932 48C45.1352 47.8274 54.9995 38.0119 54.9995 24.596C54.9995 12.6833 45.9652 0.000714547 29.2491 0.000714562Z" fill="#5A31F4"/>
<ellipse cx="6.22593" cy="14.3887" rx="3.80503" ry="3.5" fill="#5A31F4"/>
<ellipse cx="1.5566" cy="19.8331" rx="1.5566" ry="1.94444" fill="#5A31F4"/>
<path d="M151.616 13.16L139.952 47H127.904L116.192 13.16H126.272L133.952 37.592L141.584 13.16H151.616ZM181.283 24.44C181.283 26.488 180.803 28.36 179.843 30.056C178.915 31.72 177.491 33.064 175.571 34.088C173.683 35.08 171.363 35.576 168.611 35.576H163.955V47H154.547V13.16H168.611C171.331 13.16 173.635 13.64 175.523 14.6C177.443 15.56 178.883 16.888 179.843 18.584C180.803 20.28 181.283 22.232 181.283 24.44ZM167.699 28.088C170.355 28.088 171.683 26.872 171.683 24.44C171.683 21.976 170.355 20.744 167.699 20.744H163.955V28.088H167.699ZM216.407 47H206.999L194.471 28.088V47H185.063V13.16H194.471L206.999 32.312V13.16H216.407V47Z" fill="#5A31F4"/>
<path d="M67.96 46.04C65.9867 46.04 64.0533 45.7733 62.16 45.24C60.2933 44.7333 58.76 43.9867 57.56 43L59.8 39.24C60.7333 40.0133 61.9067 40.6267 63.32 41.08C64.76 41.56 66.2133 41.8 67.68 41.8C70.0267 41.8 71.7467 41.2533 72.84 40.16C73.9333 39.0933 74.48 37.48 74.48 35.32V31.52L74.88 26.68L74.72 21.84V16.64H79.48V34.76C79.48 38.6267 78.4933 41.4667 76.52 43.28C74.5467 45.12 71.6933 46.04 67.96 46.04ZM67.32 37.04C65.2933 37.04 63.4533 36.6133 61.8 35.76C60.1733 34.88 58.88 33.6667 57.92 32.12C56.9867 30.5733 56.52 28.76 56.52 26.68C56.52 24.6267 56.9867 22.8267 57.92 21.28C58.88 19.7333 60.1733 18.5333 61.8 17.68C63.4533 16.8267 65.2933 16.4 67.32 16.4C69.1333 16.4 70.76 16.76 72.2 17.48C73.64 18.2 74.7867 19.32 75.64 20.84C76.52 22.36 76.96 24.3067 76.96 26.68C76.96 29.0533 76.52 31.0133 75.64 32.56C74.7867 34.08 73.64 35.2133 72.2 35.96C70.76 36.68 69.1333 37.04 67.32 37.04ZM68.08 32.8C69.3333 32.8 70.4533 32.5467 71.44 32.04C72.4267 31.5067 73.1867 30.7867 73.72 29.88C74.28 28.9467 74.56 27.88 74.56 26.68C74.56 25.48 74.28 24.4267 73.72 23.52C73.1867 22.5867 72.4267 21.88 71.44 21.4C70.4533 20.8933 69.3333 20.64 68.08 20.64C66.8267 20.64 65.6933 20.8933 64.68 21.4C63.6933 21.88 62.92 22.5867 62.36 23.52C61.8267 24.4267 61.56 25.48 61.56 26.68C61.56 27.88 61.8267 28.9467 62.36 29.88C62.92 30.7867 63.6933 31.5067 64.68 32.04C65.6933 32.5467 66.8267 32.8 68.08 32.8ZM95.6534 38.28C93.4668 38.28 91.5201 37.8133 89.8134 36.88C88.1068 35.92 86.7601 34.6133 85.7734 32.96C84.7868 31.3067 84.2934 29.4267 84.2934 27.32C84.2934 25.1867 84.7868 23.3067 85.7734 21.68C86.7601 20.0267 88.1068 18.7333 89.8134 17.8C91.5201 16.8667 93.4668 16.4 95.6534 16.4C97.8668 16.4 99.8268 16.8667 101.533 17.8C103.267 18.7333 104.613 20.0133 105.573 21.64C106.56 23.2667 107.053 25.16 107.053 27.32C107.053 29.4267 106.56 31.3067 105.573 32.96C104.613 34.6133 103.267 35.92 101.533 36.88C99.8268 37.8133 97.8668 38.28 95.6534 38.28ZM95.6534 34C96.8801 34 97.9734 33.7333 98.9334 33.2C99.8934 32.6667 100.64 31.8933 101.173 30.88C101.733 29.8667 102.013 28.68 102.013 27.32C102.013 25.9333 101.733 24.7467 101.173 23.76C100.64 22.7467 99.8934 21.9733 98.9334 21.44C97.9734 20.9067 96.8934 20.64 95.6934 20.64C94.4668 20.64 93.3734 20.9067 92.4134 21.44C91.4801 21.9733 90.7334 22.7467 90.1734 23.76C89.6134 24.7467 89.3334 25.9333 89.3334 27.32C89.3334 28.68 89.6134 29.8667 90.1734 30.88C90.7334 31.8933 91.4801 32.6667 92.4134 33.2C93.3734 33.7333 94.4534 34 95.6534 34Z" fill="#5A31F4"/>
</svg>
